<?xml version="1.0" encoding="utf-8"?>
<!-- Generator: Adobe Illustrator 22.0.1, SVG Export Plug-In . SVG Version: 6.00 Build 0)  -->
<svg version="1.1" id="Layer_1" xmlns="http://www.w3.org/2000/svg" xmlns:xlink="http://www.w3.org/1999/xlink" x="0px" y="0px"
	 viewBox="0 0 28.3 28.3" style="enable-background:new 0 0 28.3 28.3;" xml:space="preserve">
<path d="M8.6,26h11.7c2,0,3.7-1.2,3.7-2.7V3.7C24,2.2,22.3,1,20.3,1H8.6c-2,0-3.7,1.2-3.7,2.7v19.7C4.9,24.8,6.6,26,8.6,26
	 M14.5,25.1c-0.9,0-1.6-0.6-1.6-1.2c0-0.7,0.7-1.3,1.6-1.3c0.9,0,1.6,0.6,1.6,1.3C16.1,24.5,15.4,25.1,14.5,25.1 M11.9,2.6h5
	c0.2,0,0.4,0.1,0.4,0.2c0,0.1-0.2,0.2-0.4,0.2h-5c-0.2,0-0.4-0.1-0.4-0.2C11.6,2.7,11.7,2.6,11.9,2.6 M6.4,5.6
	c0-0.2,0.2-0.4,0.6-0.4H22c0.3,0,0.6,0.2,0.6,0.4v15.7c0,0.2-0.2,0.4-0.6,0.4H6.9c-0.3,0-0.6-0.2-0.6-0.4L6.4,5.6"/>
</svg>
